<svg version="1.0" xmlns="http://www.w3.org/2000/svg"
 width="512.000000pt" height="512.000000pt" viewBox="0 0 512.000000 512.000000"
 preserveAspectRatio="xMidYMid meet">

<g transform="translate(0.000000,512.000000) scale(0.100000,-0.100000)"
fill="#000000" stroke="none">
<path d="M2340 4729 c-495 -51 -966 -275 -1320 -629 -345 -345 -559 -784 -625
-1282 l-6 -48 611 0 c480 0 611 3 614 13 42 142 82 233 149 332 210 310 599
474 972 409 383 -67 691 -350 785 -721 l11 -43 600 0 600 0 -6 58 c-69 586
-386 1133 -862 1488 -434 323 -988 477 -1523 423z"/>
<path d="M2453 3170 c-125 -23 -274 -107 -358 -203 -101 -115 -162 -292 -151
-442 36 -530 697 -767 1076 -386 328 329 181 881 -270 1015 -67 20 -226 28
-297 16z"/>
<path d="M395 2303 c65 -496 281 -939 625 -1283 332 -332 750 -543 1221 -617
158 -24 480 -24 638 0 609 95 1139 427 1480 926 197 289 319 613 366 974 l6
47 -604 0 -604 0 -11 -51 c-15 -62 -75 -193 -124 -270 -106 -166 -299 -315
-496 -384 -416 -145 -893 13 -1135 378 -51 76 -114 211 -129 276 l-11 51 -614
0 -614 0 6 -47z"/>
<path d="M5081 2154 c0 -11 3 -14 6 -6 3 7 2 16 -1 19 -3 4 -6 -2 -5 -13z"/>
</g>
</svg>
